<svg width="2682.000000" height="721.000000" viewBox="0 0 2682 721" fill="none" xmlns="http://www.w3.org/2000/svg" xmlns:xlink="http://www.w3.org/1999/xlink">
	<desc>
			Created with Pixso.
	</desc>
	<defs>
		<clipPath id="clip9_155">
			<rect id="Assets" width="2682.000000" height="721.000000" fill="white" fill-opacity="0"/>
		</clipPath>
	</defs>
	<g clip-path="url(#clip9_155)">
		<g opacity="0.200000">
			<path id="Vector" d="" fill="#FFFFFF" fill-opacity="0.400000" fill-rule="nonzero"/>
			<path id="Vector" d="M1496.36 0.21L2993.17 729L2994.06 728.56L1497.26 -0.22L1496.36 0.21Z" fill="#FFFFFF" fill-opacity="0.400000" fill-rule="evenodd"/>
		</g>
		<g opacity="0.200000">
			<path id="Vector" d="" fill="#FFFFFF" fill-opacity="0.400000" fill-rule="nonzero"/>
			<path id="Vector" d="M1408.31 43.08L2905.12 771.87L2906.02 771.43L1409.21 42.65L1408.31 43.08Z" fill="#FFFFFF" fill-opacity="0.400000" fill-rule="evenodd"/>
		</g>
		<g opacity="0.200000">
			<path id="Vector" d="" fill="#FFFFFF" fill-opacity="0.400000" fill-rule="nonzero"/>
			<path id="Vector" d="M1320.26 85.95L2817.07 814.74L2817.97 814.3L1321.16 85.52L1320.26 85.95Z" fill="#FFFFFF" fill-opacity="0.400000" fill-rule="evenodd"/>
		</g>
		<g opacity="0.200000">
			<path id="Vector" d="" fill="#FFFFFF" fill-opacity="0.400000" fill-rule="nonzero"/>
			<path id="Vector" d="M1232.21 128.82L2729.02 857.61L2729.92 857.17L1233.11 128.39L1232.21 128.82Z" fill="#FFFFFF" fill-opacity="0.400000" fill-rule="evenodd"/>
		</g>
		<g opacity="0.200000">
			<path id="Vector" d="" fill="#FFFFFF" fill-opacity="0.400000" fill-rule="nonzero"/>
			<path id="Vector" d="M1144.17 171.69L2640.97 900.48L2641.87 900.04L1145.06 171.26L1144.17 171.69Z" fill="#FFFFFF" fill-opacity="0.400000" fill-rule="evenodd"/>
		</g>
		<g opacity="0.200000">
			<path id="Vector" d="" fill="#FFFFFF" fill-opacity="0.400000" fill-rule="nonzero"/>
			<path id="Vector" d="M1056.12 214.56L2552.93 943.35L2553.83 942.91L1057.02 214.12L1056.12 214.56Z" fill="#FFFFFF" fill-opacity="0.400000" fill-rule="evenodd"/>
		</g>
		<g opacity="0.200000">
			<path id="Vector" d="" fill="#FFFFFF" fill-opacity="0.400000" fill-rule="nonzero"/>
			<path id="Vector" d="M968.07 257.43L2464.87 986.22L2465.78 985.78L968.97 256.99L968.07 257.43Z" fill="#FFFFFF" fill-opacity="0.400000" fill-rule="evenodd"/>
		</g>
		<g opacity="0.200000">
			<path id="Vector" d="" fill="#FFFFFF" fill-opacity="0.400000" fill-rule="nonzero"/>
			<path id="Vector" d="M880.02 300.3L2376.83 1029.09L2377.73 1028.65L880.92 299.86L880.02 300.3Z" fill="#FFFFFF" fill-opacity="0.400000" fill-rule="evenodd"/>
		</g>
		<g opacity="0.200000">
			<path id="Vector" d="" fill="#FFFFFF" fill-opacity="0.400000" fill-rule="nonzero"/>
			<path id="Vector" d="M791.97 343.17L2288.78 1071.96L2289.68 1071.52L792.87 342.73L791.97 343.17Z" fill="#FFFFFF" fill-opacity="0.400000" fill-rule="evenodd"/>
		</g>
		<g opacity="0.200000">
			<path id="Vector" d="" fill="#FFFFFF" fill-opacity="0.400000" fill-rule="nonzero"/>
			<path id="Vector" d="M703.93 386.04L2200.74 1114.82L2201.63 1114.39L704.82 385.6L703.93 386.04Z" fill="#FFFFFF" fill-opacity="0.400000" fill-rule="evenodd"/>
		</g>
		<g opacity="0.200000">
			<path id="Vector" d="" fill="#FFFFFF" fill-opacity="0.400000" fill-rule="nonzero"/>
			<path id="Vector" d="M615.88 428.91L2112.69 1157.69L2113.59 1157.26L616.78 428.47L615.88 428.91Z" fill="#FFFFFF" fill-opacity="0.400000" fill-rule="evenodd"/>
		</g>
		<g opacity="0.200000">
			<path id="Vector" d="" fill="#FFFFFF" fill-opacity="0.400000" fill-rule="nonzero"/>
			<path id="Vector" d="M527.83 471.78L2024.64 1200.56L2025.54 1200.13L528.73 471.34L527.83 471.78Z" fill="#FFFFFF" fill-opacity="0.400000" fill-rule="evenodd"/>
		</g>
		<g opacity="0.200000">
			<path id="Vector" d="" fill="#FFFFFF" fill-opacity="0.400000" fill-rule="nonzero"/>
			<path id="Vector" d="M439.78 514.65L1936.6 1243.43L1937.49 1243L440.68 514.21L439.78 514.65Z" fill="#FFFFFF" fill-opacity="0.400000" fill-rule="evenodd"/>
		</g>
		<g opacity="0.200000">
			<path id="Vector" d="" fill="#FFFFFF" fill-opacity="0.400000" fill-rule="nonzero"/>
			<path id="Vector" d="M351.73 557.52L1848.55 1286.31L1849.45 1285.87L352.63 557.08L351.73 557.52Z" fill="#FFFFFF" fill-opacity="0.400000" fill-rule="evenodd"/>
		</g>
		<g opacity="0.200000">
			<path id="Vector" d="" fill="#FFFFFF" fill-opacity="0.400000" fill-rule="nonzero"/>
			<path id="Vector" d="M263.69 600.39L1760.5 1329.18L1761.4 1328.74L264.59 599.95L263.69 600.39Z" fill="#FFFFFF" fill-opacity="0.400000" fill-rule="evenodd"/>
		</g>
		<g opacity="0.200000">
			<path id="Vector" d="" fill="#FFFFFF" fill-opacity="0.400000" fill-rule="nonzero"/>
			<path id="Vector" d="M175.64 643.26L1672.45 1372.05L1673.35 1371.61L176.54 642.82L175.64 643.26Z" fill="#FFFFFF" fill-opacity="0.400000" fill-rule="evenodd"/>
		</g>
		<g opacity="0.200000">
			<path id="Vector" d="" fill="#FFFFFF" fill-opacity="0.400000" fill-rule="nonzero"/>
			<path id="Vector" d="M87.59 686.13L1584.41 1414.92L1585.3 1414.48L88.49 685.69L87.59 686.13Z" fill="#FFFFFF" fill-opacity="0.400000" fill-rule="evenodd"/>
		</g>
		<g opacity="0.200000">
			<path id="Vector" d="" fill="#FFFFFF" fill-opacity="0.400000" fill-rule="nonzero"/>
			<path id="Vector" d="M-0.45 729L1496.36 1457.79L1497.26 1457.35L0.44 728.56L-0.45 729Z" fill="#FFFFFF" fill-opacity="0.400000" fill-rule="evenodd"/>
		</g>
		<g opacity="0.200000">
			<path id="Vector" d="" fill="#FFFFFF" fill-opacity="0.400000" fill-rule="nonzero"/>
			<path id="Vector" d="M1672.45 85.52L175.64 814.3L176.54 814.74L1673.35 85.95L1672.45 85.52Z" fill="#FFFFFF" fill-opacity="0.400000" fill-rule="evenodd"/>
		</g>
		<g opacity="0.200000">
			<path id="Vector" d="" fill="#FFFFFF" fill-opacity="0.400000" fill-rule="nonzero"/>
			<path id="Vector" d="M1760.5 128.39L263.69 857.17L264.59 857.61L1761.4 128.82L1760.5 128.39Z" fill="#FFFFFF" fill-opacity="0.400000" fill-rule="evenodd"/>
		</g>
		<g opacity="0.200000">
			<path id="Vector" d="" fill="#FFFFFF" fill-opacity="0.400000" fill-rule="nonzero"/>
			<path id="Vector" d="M1848.55 171.26L351.74 900.04L352.63 900.48L1849.45 171.69L1848.55 171.26Z" fill="#FFFFFF" fill-opacity="0.400000" fill-rule="evenodd"/>
		</g>
		<g opacity="0.200000">
			<path id="Vector" d="" fill="#FFFFFF" fill-opacity="0.400000" fill-rule="nonzero"/>
			<path id="Vector" d="M1936.87 213.99L440.06 942.77L440.4 943.48L1937.22 214.7L1936.87 213.99Z" fill="#FFFFFF" fill-opacity="0.400000" fill-rule="evenodd"/>
		</g>
		<g opacity="0.200000">
			<path id="Vector" d="" fill="#FFFFFF" fill-opacity="0.400000" fill-rule="nonzero"/>
			<path id="Vector" d="M2024.64 256.99L527.83 985.78L528.73 986.22L2025.54 257.43L2024.64 256.99Z" fill="#FFFFFF" fill-opacity="0.400000" fill-rule="evenodd"/>
		</g>
		<g opacity="0.200000">
			<path id="Vector" d="" fill="#FFFFFF" fill-opacity="0.400000" fill-rule="nonzero"/>
			<path id="Vector" d="M2112.69 299.86L615.88 1028.65L616.78 1029.09L2113.59 300.3L2112.69 299.86Z" fill="#FFFFFF" fill-opacity="0.400000" fill-rule="evenodd"/>
		</g>
		<g opacity="0.200000">
			<path id="Vector" d="" fill="#FFFFFF" fill-opacity="0.400000" fill-rule="nonzero"/>
			<path id="Vector" d="M2200.74 342.73L703.93 1071.52L704.82 1071.96L2201.63 343.17L2200.74 342.73Z" fill="#FFFFFF" fill-opacity="0.400000" fill-rule="evenodd"/>
		</g>
		<g opacity="0.200000">
			<path id="Vector" d="" fill="#FFFFFF" fill-opacity="0.400000" fill-rule="nonzero"/>
			<path id="Vector" d="M2288.77 385.6L791.96 1114.39L792.85 1114.82L2289.67 386.04L2288.77 385.6Z" fill="#FFFFFF" fill-opacity="0.400000" fill-rule="evenodd"/>
		</g>
		<g opacity="0.200000">
			<path id="Vector" d="" fill="#FFFFFF" fill-opacity="0.400000" fill-rule="nonzero"/>
			<path id="Vector" d="M2376.81 428.47L880 1157.26L880.9 1157.69L2377.71 428.91L2376.81 428.47Z" fill="#FFFFFF" fill-opacity="0.400000" fill-rule="evenodd"/>
		</g>
		<g opacity="0.200000">
			<path id="Vector" d="" fill="#FFFFFF" fill-opacity="0.400000" fill-rule="nonzero"/>
			<path id="Vector" d="M2464.86 471.34L968.05 1200.13L968.95 1200.56L2465.76 471.78L2464.86 471.34Z" fill="#FFFFFF" fill-opacity="0.400000" fill-rule="evenodd"/>
		</g>
		<g opacity="0.200000">
			<path id="Vector" d="" fill="#FFFFFF" fill-opacity="0.400000" fill-rule="nonzero"/>
			<path id="Vector" d="M2552.9 514.21L1056.1 1243L1057 1243.43L2553.81 514.65L2552.9 514.21Z" fill="#FFFFFF" fill-opacity="0.400000" fill-rule="evenodd"/>
		</g>
		<g opacity="0.200000">
			<path id="Vector" d="" fill="#FFFFFF" fill-opacity="0.400000" fill-rule="nonzero"/>
			<path id="Vector" d="M2640.96 557.08L1144.15 1285.87L1145.05 1286.31L2641.86 557.52L2640.96 557.08Z" fill="#FFFFFF" fill-opacity="0.400000" fill-rule="evenodd"/>
		</g>
		<g opacity="0.200000">
			<path id="Vector" d="" fill="#FFFFFF" fill-opacity="0.400000" fill-rule="nonzero"/>
			<path id="Vector" d="M2729 599.95L1232.19 1328.74L1233.1 1329.18L2729.9 600.39L2729 599.95Z" fill="#FFFFFF" fill-opacity="0.400000" fill-rule="evenodd"/>
		</g>
		<g opacity="0.200000">
			<path id="Vector" d="" fill="#FFFFFF" fill-opacity="0.400000" fill-rule="nonzero"/>
			<path id="Vector" d="M2817.05 642.82L1320.24 1371.61L1321.14 1372.05L2817.95 643.26L2817.05 642.82Z" fill="#FFFFFF" fill-opacity="0.400000" fill-rule="evenodd"/>
		</g>
	</g>
</svg>
