<svg width="70.000000" height="70.000000" viewBox="0 0 70 70" fill="none" xmlns="http://www.w3.org/2000/svg" xmlns:xlink="http://www.w3.org/1999/xlink">
	<desc>
			Created with Pixso.
	</desc>
	<defs>
		<filter id="filter_9_186_dd" x="-1.000000" y="5.000000" width="71.548096" height="68.000000" filterUnits="userSpaceOnUse" color-interpolation-filters="sRGB">
			<feFlood flood-opacity="0" result="BackgroundImageFix"/>
			<feColorMatrix in="SourceAlpha" type="matrix" values="0 0 0 0 0 0 0 0 0 0 0 0 0 0 0 0 0 0 127 0" result="hardAlpha"/>
			<feOffset dx="0" dy="4"/>
			<feGaussianBlur stdDeviation="1.33333"/>
			<feComposite in2="hardAlpha" operator="out" k2="-1" k3="1"/>
			<feColorMatrix type="matrix" values="0 0 0 0 0 0 0 0 0 0 0 0 0 0 0 0 0 0 0.25 0"/>
			<feBlend mode="normal" in2="BackgroundImageFix" result="effect_dropShadow_1"/>
			<feBlend mode="normal" in="SourceGraphic" in2="effect_dropShadow_1" result="shape"/>
		</filter>
		<clipPath id="clip9_180">
			<rect id="Title &amp; Desc" width="70.000000" height="70.000000" fill="white" fill-opacity="0"/>
		</clipPath>
		<linearGradient x1="3.010742" y1="35.006256" x2="66.537354" y2="35.006256" id="paint_linear_9_190_0" gradientUnits="userSpaceOnUse">
			<stop stop-color="#0CBAF1"/>
			<stop offset="1.000000" stop-color="#E95CE9"/>
		</linearGradient>
	</defs>
	<g clip-path="url(#clip9_180)">
		<g filter="url(#filter_9_186_dd)">
			<mask id="mask9_187" mask-type="alpha" maskUnits="userSpaceOnUse" x="3.000000" y="5.000000" width="63.548096" height="60.000000">
				<path id="Vector" d="M3 5L66.54 5L66.54 65L3 65L3 5Z" fill="#000000" fill-opacity="1.000000" fill-rule="nonzero"/>
			</mask>
			<g mask="url(#mask9_187)">
				<path id="Vector" d="M60.6 45.82C60.6 45.82 60.61 45.82 60.62 45.82C60.63 45.82 60.64 45.81 60.65 45.8C60.66 45.79 60.67 45.78 60.68 45.77C60.69 45.76 60.71 45.74 60.72 45.73L60.74 45.69C60.75 45.67 60.76 45.65 60.77 45.63C60.77 45.62 60.78 45.61 60.78 45.6C60.79 45.57 60.79 45.53 60.79 45.5L60.79 17.11C60.79 17.04 60.77 16.96 60.73 16.9C60.69 16.84 60.63 16.79 60.56 16.76L35.23 5.23C35.2 5.17 35.16 5.12 35.1 5.08C35.01 5.02 34.91 5.01 34.8 5.04C34.76 5.03 34.71 5.02 34.67 5.02C34.63 5.03 34.58 5.04 34.54 5.05C34.5 5.07 34.47 5.1 34.44 5.13C34.4 5.16 34.38 5.19 34.36 5.23L9.03 16.76C8.96 16.79 8.9 16.84 8.86 16.9C8.82 16.96 8.8 17.04 8.8 17.11L8.8 45.49C8.8 45.53 8.8 45.56 8.81 45.59C8.81 45.6 8.81 45.61 8.82 45.62C8.83 45.63 8.84 45.66 8.85 45.68L8.87 45.72C8.89 45.73 8.9 45.75 8.91 45.76L8.95 45.79C8.95 45.8 8.96 45.81 8.97 45.81L8.99 45.81L9.01 45.83L34.53 58.17C34.58 58.19 34.64 58.21 34.7 58.21C34.76 58.21 34.81 58.19 34.86 58.17L60.58 45.83L60.6 45.82ZM52.38 48.92L44.48 45.16L51.31 41.9C51.35 41.88 51.38 41.85 51.4 41.81L59.51 45.5L52.38 48.92ZM43.17 53.34L35.24 49.56L44.04 45.37L51.95 49.14L43.17 53.34ZM17.62 49.15L25.56 45.37L34.36 49.56L26.36 53.37L17.62 49.15ZM10.08 45.5L18.19 41.81C18.2 41.85 18.23 41.88 18.27 41.9L25.11 45.16L17.18 48.94L10.08 45.5ZM27.59 37.53L34.35 40.75L25.55 44.95L18.59 41.63L27.59 37.53ZM28.05 37.32L34.81 34.25L41.56 37.32L34.8 40.54L28.05 37.32ZM42.01 37.53L51.01 41.63L44.04 44.95L35.24 40.75L42.01 37.53ZM26 45.16L34.8 40.96L43.61 45.16L34.8 49.35L26 45.16ZM60.03 26.02L59.62 25.84C59.6 25.83 59.57 25.82 59.55 25.82C59.52 25.82 59.5 25.82 59.48 25.83C59.45 25.84 59.43 25.85 59.41 25.87C59.39 25.89 59.38 25.91 59.37 25.93C59.35 25.98 59.35 26.03 59.37 26.08C59.38 26.13 59.42 26.16 59.46 26.18L60.03 26.44L60.03 36.29L59.62 36.11C59.6 36.1 59.57 36.09 59.55 36.09C59.52 36.09 59.5 36.09 59.48 36.1C59.45 36.11 59.43 36.13 59.41 36.14C59.39 36.16 59.38 36.18 59.37 36.2C59.35 36.25 59.35 36.3 59.37 36.35C59.38 36.4 59.42 36.43 59.46 36.46L60.03 36.71L60.03 44.9L35.28 33.63L35.28 25.45L35.48 25.54C35.53 25.56 35.58 25.57 35.63 25.55C35.68 25.53 35.72 25.5 35.74 25.45C35.76 25.4 35.76 25.35 35.74 25.3C35.73 25.25 35.69 25.22 35.64 25.19L35.28 25.03L35.28 15.17L35.48 15.27C35.53 15.29 35.58 15.29 35.63 15.28C35.68 15.26 35.72 15.22 35.74 15.17C35.76 15.13 35.76 15.08 35.74 15.03C35.72 14.98 35.69 14.95 35.64 14.92L35.28 14.75L35.28 6.09L60.03 17.36L60.03 26.02ZM34.51 6L34.51 14.57L33.75 14.91C33.71 14.93 33.68 14.96 33.66 15C33.64 15.04 33.63 15.09 33.64 15.13C33.65 15.17 33.67 15.21 33.71 15.24C33.74 15.27 33.78 15.28 33.83 15.28C33.86 15.28 33.88 15.27 33.91 15.26L34.51 14.98L34.51 24.85L33.75 25.2C33.73 25.21 33.71 25.22 33.69 25.24C33.67 25.26 33.66 25.28 33.65 25.3C33.64 25.33 33.64 25.35 33.64 25.38C33.64 25.4 33.64 25.43 33.65 25.45C33.69 25.52 33.75 25.56 33.83 25.56C33.86 25.56 33.88 25.56 33.91 25.54L34.51 25.27L34.51 33.45L9.56 44.9L9.56 36.71L10.13 36.45C10.18 36.43 10.21 36.4 10.23 36.35C10.24 36.3 10.24 36.25 10.22 36.2C10.2 36.15 10.16 36.12 10.11 36.1C10.06 36.08 10.02 36.08 9.97 36.11L9.56 36.29L9.56 26.44L10.13 26.18C10.18 26.16 10.21 26.12 10.23 26.07C10.24 26.02 10.24 25.98 10.22 25.93C10.2 25.88 10.16 25.85 10.11 25.83C10.06 25.81 10.02 25.81 9.97 25.83L9.56 26.02L9.56 17.36L34.51 6ZM34.7 57.4L26.79 53.58L34.79 49.77L42.73 53.55L34.7 57.4ZM26.34 18.53C26.32 18.49 26.31 18.44 26.33 18.39C26.35 18.34 26.38 18.3 26.43 18.28L28.26 17.44C28.31 17.43 28.35 17.43 28.4 17.45C28.44 17.47 28.48 17.5 28.5 17.54C28.52 17.59 28.52 17.64 28.51 17.68C28.49 17.73 28.46 17.77 28.42 17.79L26.59 18.63C26.57 18.64 26.54 18.65 26.51 18.65C26.43 18.65 26.37 18.61 26.34 18.53ZM30 16.86C29.97 16.81 29.97 16.76 29.99 16.71C30.01 16.66 30.04 16.63 30.09 16.6L31.92 15.76C31.97 15.75 32.01 15.75 32.06 15.77C32.1 15.79 32.14 15.82 32.16 15.87C32.18 15.91 32.18 15.96 32.16 16C32.15 16.05 32.12 16.09 32.08 16.11L30.25 16.95C30.22 16.96 30.2 16.97 30.17 16.97C30.09 16.97 30.03 16.93 30 16.86ZM11.69 25.25C11.68 25.23 11.68 25.2 11.68 25.17C11.68 25.15 11.68 25.12 11.7 25.1C11.71 25.07 11.72 25.05 11.74 25.04C11.76 25.02 11.78 25 11.81 25L13.64 24.16C13.66 24.14 13.69 24.13 13.71 24.13C13.74 24.13 13.77 24.13 13.79 24.14C13.82 24.15 13.84 24.16 13.86 24.18C13.88 24.2 13.9 24.22 13.91 24.24C13.92 24.27 13.93 24.29 13.93 24.32C13.93 24.35 13.92 24.37 13.91 24.4C13.9 24.42 13.89 24.44 13.87 24.46C13.85 24.48 13.82 24.5 13.8 24.5L11.97 25.34C11.94 25.35 11.92 25.36 11.89 25.36C11.85 25.36 11.81 25.35 11.78 25.33C11.74 25.31 11.72 25.29 11.7 25.25L11.69 25.25ZM15.36 23.57C15.35 23.55 15.34 23.52 15.34 23.5C15.34 23.47 15.35 23.45 15.35 23.42C15.36 23.4 15.38 23.38 15.39 23.36C15.41 23.34 15.43 23.33 15.46 23.32L17.28 22.48C17.31 22.46 17.33 22.45 17.36 22.45C17.39 22.45 17.41 22.45 17.44 22.46C17.47 22.47 17.49 22.48 17.51 22.5C17.53 22.51 17.54 22.54 17.56 22.56C17.57 22.58 17.57 22.61 17.57 22.64C17.58 22.66 17.57 22.69 17.56 22.72C17.55 22.74 17.53 22.76 17.51 22.78C17.49 22.8 17.47 22.81 17.44 22.82L15.62 23.66C15.59 23.67 15.56 23.68 15.53 23.68C15.45 23.68 15.4 23.64 15.36 23.57ZM19.02 21.89C19 21.84 19 21.79 19.02 21.75C19.03 21.7 19.07 21.66 19.11 21.64L20.94 20.8C20.99 20.78 21.04 20.78 21.09 20.79C21.14 20.81 21.18 20.85 21.2 20.89C21.21 20.92 21.21 20.94 21.21 20.97C21.22 20.99 21.21 21.02 21.2 21.04C21.19 21.06 21.18 21.08 21.16 21.1C21.15 21.12 21.13 21.14 21.1 21.15L19.27 21.99C19.23 22.01 19.18 22.01 19.13 21.99C19.08 21.97 19.04 21.94 19.02 21.89ZM22.68 20.21C22.66 20.17 22.66 20.12 22.67 20.07C22.69 20.02 22.73 19.98 22.77 19.96L24.6 19.12C24.63 19.11 24.65 19.1 24.68 19.1C24.7 19.1 24.73 19.1 24.75 19.11C24.78 19.12 24.8 19.13 24.82 19.15C24.84 19.17 24.85 19.19 24.86 19.21C24.87 19.24 24.88 19.26 24.88 19.29C24.88 19.31 24.88 19.34 24.87 19.36C24.86 19.39 24.84 19.41 24.82 19.43C24.81 19.44 24.78 19.46 24.76 19.47L22.93 20.31C22.91 20.32 22.88 20.32 22.85 20.32C22.81 20.32 22.78 20.31 22.75 20.29C22.72 20.27 22.7 20.25 22.68 20.21ZM48.3 20.89C48.32 20.85 48.36 20.81 48.41 20.79C48.46 20.78 48.51 20.78 48.56 20.8L50.41 21.64C50.46 21.66 50.49 21.7 50.51 21.75C50.53 21.79 50.53 21.84 50.51 21.89C50.49 21.93 50.47 21.95 50.43 21.97C50.4 21.99 50.37 22 50.33 22C50.3 22 50.28 22 50.25 21.99L48.4 21.15C48.35 21.12 48.32 21.09 48.3 21.04C48.28 20.99 48.28 20.94 48.3 20.89ZM55.68 24.25C55.69 24.23 55.71 24.21 55.72 24.19C55.74 24.18 55.76 24.16 55.79 24.15C55.81 24.14 55.84 24.14 55.86 24.14C55.89 24.14 55.91 24.15 55.93 24.16L57.79 25C57.83 25.02 57.86 25.05 57.88 25.09C57.9 25.13 57.9 25.17 57.89 25.21C57.88 25.25 57.86 25.29 57.83 25.32C57.79 25.35 57.75 25.36 57.71 25.36C57.68 25.36 57.65 25.36 57.63 25.34L55.78 24.51C55.75 24.5 55.73 24.48 55.72 24.46C55.7 24.44 55.68 24.42 55.68 24.4C55.67 24.38 55.66 24.35 55.66 24.33C55.66 24.3 55.67 24.28 55.68 24.25ZM44.61 19.22C44.64 19.17 44.67 19.13 44.72 19.12C44.77 19.1 44.82 19.1 44.87 19.12L46.72 19.96C46.77 19.98 46.8 20.02 46.82 20.07C46.84 20.12 46.83 20.17 46.81 20.21C46.8 20.25 46.77 20.27 46.74 20.29C46.71 20.31 46.68 20.33 46.64 20.32C46.61 20.32 46.59 20.32 46.56 20.31L44.71 19.46C44.66 19.44 44.63 19.41 44.61 19.36C44.59 19.31 44.59 19.26 44.61 19.22ZM51.99 22.57C52.01 22.53 52.05 22.49 52.1 22.47C52.15 22.46 52.2 22.46 52.25 22.48L54.1 23.32C54.14 23.34 54.17 23.37 54.19 23.41C54.21 23.45 54.21 23.49 54.2 23.53C54.2 23.58 54.17 23.61 54.14 23.64C54.1 23.67 54.06 23.68 54.02 23.68C53.99 23.68 53.97 23.68 53.94 23.66L52.09 22.83C52.04 22.8 52.01 22.77 51.99 22.72C51.97 22.67 51.97 22.62 51.99 22.57ZM37.24 15.86C37.25 15.83 37.26 15.81 37.28 15.8C37.3 15.78 37.32 15.77 37.34 15.76C37.37 15.75 37.39 15.74 37.42 15.75C37.44 15.75 37.47 15.75 37.49 15.76L39.34 16.6C39.38 16.62 39.41 16.65 39.43 16.69C39.45 16.73 39.46 16.77 39.45 16.82C39.44 16.86 39.42 16.89 39.38 16.92C39.35 16.95 39.31 16.97 39.26 16.97C39.24 16.97 39.21 16.96 39.19 16.95L37.33 16.11C37.31 16.1 37.29 16.08 37.27 16.07C37.25 16.05 37.24 16.03 37.23 16C37.22 15.98 37.22 15.96 37.22 15.93C37.22 15.91 37.23 15.88 37.24 15.86ZM40.93 17.53C40.94 17.5 40.95 17.48 40.97 17.47C40.99 17.45 41.01 17.44 41.03 17.43C41.06 17.42 41.08 17.41 41.11 17.41C41.13 17.42 41.15 17.42 41.18 17.43L43.03 18.27C43.05 18.28 43.08 18.3 43.09 18.32C43.11 18.33 43.12 18.36 43.13 18.38C43.14 18.4 43.14 18.43 43.14 18.45C43.14 18.48 43.14 18.5 43.13 18.53C43.1 18.57 43.07 18.61 43.02 18.62C42.97 18.64 42.92 18.64 42.87 18.62L41.02 17.78C41 17.77 40.98 17.75 40.96 17.74C40.94 17.72 40.93 17.7 40.92 17.67C40.91 17.65 40.91 17.62 40.91 17.6C40.91 17.57 40.91 17.55 40.93 17.53ZM26.33 28.8C26.31 28.75 26.3 28.7 26.32 28.65C26.34 28.6 26.37 28.57 26.42 28.54L28.26 27.71C28.31 27.7 28.35 27.7 28.4 27.72C28.44 27.74 28.48 27.77 28.5 27.82C28.52 27.86 28.52 27.91 28.5 27.95C28.49 28 28.46 28.04 28.42 28.06L26.59 28.9C26.56 28.91 26.54 28.92 26.51 28.92C26.43 28.92 26.37 28.88 26.34 28.81L26.33 28.8ZM22.68 30.49C22.66 30.45 22.66 30.4 22.67 30.35C22.69 30.3 22.73 30.26 22.77 30.24L24.6 29.4C24.65 29.38 24.7 29.38 24.75 29.4C24.8 29.41 24.83 29.45 24.86 29.5C24.88 29.54 24.88 29.59 24.86 29.64C24.84 29.69 24.81 29.73 24.76 29.75L22.93 30.58C22.91 30.59 22.88 30.6 22.85 30.6C22.77 30.6 22.72 30.56 22.68 30.49ZM19.02 32.17C19 32.12 19 32.08 19.02 32.03C19.03 31.98 19.07 31.94 19.11 31.92L20.94 31.08C20.99 31.06 21.04 31.06 21.09 31.08C21.14 31.09 21.18 31.13 21.2 31.17C21.21 31.2 21.21 31.22 21.21 31.25C21.22 31.27 21.21 31.3 21.2 31.32C21.19 31.34 21.18 31.37 21.16 31.38C21.15 31.4 21.13 31.42 21.1 31.43L19.27 32.27C19.23 32.29 19.18 32.29 19.13 32.27C19.08 32.25 19.04 32.22 19.02 32.17ZM15.36 33.85C15.35 33.83 15.34 33.8 15.34 33.78C15.34 33.75 15.35 33.73 15.36 33.71C15.36 33.68 15.38 33.66 15.4 33.64C15.41 33.62 15.43 33.61 15.46 33.6L17.28 32.76C17.31 32.74 17.33 32.74 17.36 32.73C17.39 32.73 17.41 32.73 17.44 32.74C17.47 32.75 17.49 32.76 17.51 32.78C17.53 32.8 17.54 32.82 17.56 32.84C17.57 32.87 17.57 32.89 17.57 32.92C17.58 32.95 17.57 32.97 17.56 33C17.55 33.02 17.53 33.05 17.51 33.07C17.49 33.08 17.47 33.1 17.44 33.11L15.62 33.95C15.59 33.96 15.56 33.96 15.53 33.96C15.5 33.96 15.46 33.95 15.43 33.93C15.4 33.91 15.38 33.88 15.36 33.84L15.36 33.85ZM11.7 35.53C11.69 35.51 11.69 35.48 11.68 35.46C11.68 35.43 11.69 35.41 11.7 35.38C11.71 35.36 11.72 35.34 11.74 35.32C11.75 35.3 11.77 35.29 11.8 35.28L13.63 34.43C13.65 34.42 13.67 34.41 13.7 34.4C13.73 34.4 13.75 34.4 13.78 34.41C13.81 34.42 13.83 34.43 13.85 34.45C13.87 34.47 13.89 34.49 13.9 34.52C13.91 34.54 13.92 34.57 13.92 34.59C13.92 34.62 13.91 34.65 13.9 34.67C13.89 34.7 13.87 34.72 13.85 34.74C13.83 34.76 13.81 34.77 13.79 34.78L11.96 35.62C11.93 35.63 11.9 35.63 11.88 35.63C11.79 35.63 11.74 35.6 11.7 35.52L11.7 35.53ZM30.01 27.14C29.98 27.09 29.98 27.04 30 26.99C30.02 26.94 30.05 26.91 30.1 26.88L31.93 26.05C31.97 26.03 32.02 26.03 32.07 26.05C32.11 26.07 32.14 26.1 32.16 26.15C32.19 26.19 32.19 26.24 32.17 26.29C32.16 26.33 32.13 26.37 32.09 26.39L30.26 27.23C30.23 27.24 30.21 27.25 30.18 27.25C30.14 27.25 30.1 27.24 30.07 27.22C30.04 27.2 30.01 27.17 30 27.13L30.01 27.14ZM52 32.85C52.02 32.81 52.06 32.77 52.11 32.75C52.16 32.74 52.21 32.74 52.25 32.76L54.11 33.6C54.15 33.62 54.18 33.65 54.2 33.69C54.22 33.73 54.22 33.77 54.21 33.81C54.2 33.86 54.18 33.89 54.15 33.92C54.11 33.95 54.07 33.96 54.03 33.96C54 33.96 53.98 33.96 53.95 33.95L52.1 33.11C52.07 33.1 52.05 33.08 52.03 33.07C52.01 33.05 52 33.02 51.99 33C51.98 32.97 51.97 32.95 51.97 32.92C51.97 32.89 51.98 32.87 51.99 32.84L52 32.85ZM40.93 27.81C40.94 27.79 40.95 27.76 40.97 27.75C40.99 27.73 41.01 27.72 41.03 27.71C41.06 27.7 41.08 27.7 41.11 27.7C41.13 27.7 41.15 27.7 41.18 27.71L43.03 28.55C43.05 28.56 43.07 28.58 43.09 28.6C43.11 28.62 43.12 28.64 43.13 28.66C43.14 28.68 43.14 28.71 43.14 28.73C43.14 28.76 43.14 28.78 43.13 28.81C43.1 28.85 43.07 28.89 43.02 28.91C42.97 28.92 42.92 28.92 42.87 28.9L41.02 28.06C41 28.05 40.98 28.04 40.96 28.02C40.94 28 40.93 27.98 40.92 27.95C40.91 27.93 40.91 27.91 40.91 27.88C40.91 27.86 40.91 27.83 40.93 27.81ZM44.61 29.49C44.64 29.44 44.67 29.41 44.72 29.39C44.77 29.37 44.82 29.37 44.87 29.39L46.72 30.23C46.77 30.25 46.8 30.29 46.82 30.34C46.84 30.39 46.83 30.44 46.81 30.49C46.8 30.52 46.77 30.55 46.74 30.57C46.71 30.59 46.68 30.6 46.64 30.6C46.61 30.6 46.58 30.59 46.56 30.58L44.71 29.74C44.66 29.72 44.63 29.68 44.61 29.63C44.59 29.58 44.59 29.53 44.61 29.49ZM37.24 26.13C37.25 26.11 37.26 26.09 37.28 26.07C37.3 26.05 37.32 26.04 37.34 26.03C37.37 26.02 37.39 26.02 37.42 26.02C37.44 26.02 37.47 26.02 37.49 26.03L39.34 26.87C39.37 26.89 39.39 26.9 39.4 26.92C39.42 26.94 39.43 26.96 39.44 26.98C39.45 27 39.46 27.03 39.45 27.05C39.45 27.08 39.45 27.1 39.44 27.13C39.4 27.2 39.35 27.24 39.26 27.24C39.24 27.24 39.21 27.23 39.19 27.22L37.33 26.38C37.31 26.37 37.29 26.36 37.27 26.34C37.25 26.32 37.24 26.3 37.23 26.27C37.22 26.25 37.22 26.23 37.22 26.2C37.22 26.18 37.23 26.15 37.24 26.13ZM48.3 31.16C48.32 31.12 48.36 31.08 48.41 31.07C48.46 31.05 48.51 31.05 48.56 31.07L50.41 31.91C50.46 31.93 50.49 31.97 50.51 32.02C50.53 32.07 50.53 32.12 50.51 32.16C50.49 32.2 50.47 32.22 50.43 32.25C50.4 32.27 50.37 32.28 50.33 32.27C50.3 32.27 50.28 32.27 50.25 32.26L48.4 31.42C48.35 31.4 48.32 31.36 48.3 31.31C48.28 31.26 48.28 31.21 48.3 31.16ZM57.87 35.52C57.84 35.6 57.78 35.63 57.7 35.63C57.67 35.63 57.64 35.63 57.62 35.62L55.77 34.78C55.72 34.76 55.69 34.72 55.67 34.67C55.65 34.62 55.65 34.57 55.67 34.53C55.69 34.48 55.73 34.44 55.78 34.42C55.83 34.41 55.88 34.41 55.92 34.43L57.78 35.27C57.83 35.29 57.86 35.33 57.88 35.38C57.9 35.43 57.89 35.47 57.87 35.52ZM66.53 49.61C66.53 53.05 63.56 56.31 58.17 58.79C52.97 61.18 45.89 62.69 38.23 63.04L38.2 63.04C38.13 63.04 38.05 63.02 37.98 63C37.91 62.97 37.85 62.93 37.79 62.88C37.74 62.83 37.7 62.76 37.67 62.7C37.64 62.62 37.62 62.55 37.62 62.48C37.62 62.4 37.63 62.33 37.66 62.26C37.68 62.19 37.72 62.12 37.78 62.07C37.83 62.01 37.89 61.97 37.96 61.94C38.03 61.91 38.1 61.89 38.18 61.89C53.43 61.2 65.39 55.8 65.39 49.62C65.39 47.68 64.2 45.74 61.95 43.99C61.89 43.95 61.83 43.89 61.79 43.83C61.75 43.76 61.72 43.69 61.71 43.61C61.69 43.53 61.7 43.46 61.72 43.38C61.73 43.3 61.77 43.23 61.82 43.17C61.86 43.11 61.92 43.06 61.99 43.02C62.06 42.98 62.14 42.96 62.22 42.95C62.29 42.94 62.37 42.95 62.45 42.97C62.52 43 62.59 43.04 62.65 43.09C65.19 45.05 66.53 47.31 66.53 49.61ZM33.24 62.51C33.23 62.61 33.2 62.71 33.15 62.79C33.09 62.87 33.02 62.94 32.93 62.99L29.25 64.91C29.19 64.95 29.11 64.97 29.04 64.98C28.96 64.99 28.89 64.98 28.82 64.96C28.74 64.93 28.68 64.9 28.62 64.85C28.56 64.8 28.51 64.75 28.48 64.68C28.44 64.61 28.42 64.54 28.41 64.47C28.41 64.39 28.41 64.32 28.44 64.25C28.46 64.17 28.49 64.11 28.54 64.05C28.59 63.99 28.64 63.94 28.71 63.91L30.44 63C14.72 62.1 3.01 56.43 3.01 49.61C3.01 47.16 4.52 44.77 7.38 42.71C7.44 42.66 7.5 42.63 7.58 42.61C7.66 42.59 7.73 42.58 7.81 42.59C7.89 42.6 7.96 42.63 8.03 42.67C8.09 42.71 8.15 42.76 8.19 42.82C8.24 42.89 8.27 42.96 8.29 43.03C8.31 43.11 8.31 43.19 8.29 43.26C8.28 43.34 8.25 43.41 8.21 43.47C8.16 43.54 8.11 43.59 8.04 43.64C5.5 45.48 4.16 47.54 4.16 49.61C4.16 55.75 15.75 61.06 30.74 61.86L28.97 60.66C28.91 60.62 28.86 60.56 28.82 60.5C28.77 60.44 28.75 60.37 28.73 60.29C28.72 60.22 28.72 60.15 28.73 60.07C28.75 60 28.78 59.93 28.82 59.86C28.86 59.8 28.92 59.75 28.98 59.71C29.04 59.67 29.11 59.64 29.19 59.62C29.26 59.61 29.34 59.61 29.41 59.63C29.48 59.64 29.55 59.67 29.62 59.71L32.99 62C33.07 62.06 33.14 62.14 33.18 62.23C33.23 62.32 33.25 62.41 33.24 62.51Z" fill="url(#paint_linear_9_190_0)" fill-opacity="1.000000" fill-rule="nonzero"/>
			</g>
		</g>
	</g>
</svg>
