<svg width="70.000000" height="70.000000" viewBox="0 0 70 70" fill="none" xmlns="http://www.w3.org/2000/svg" xmlns:xlink="http://www.w3.org/1999/xlink">
	<desc>
			Created with Pixso.
	</desc>
	<defs>
		<clipPath id="clip9_179">
			<rect id="Title &amp; Desc" width="70.000000" height="70.000000" fill="white" fill-opacity="0"/>
		</clipPath>
		<linearGradient x1="0.999878" y1="35.434242" x2="69.988785" y2="35.434242" id="paint_linear_9_173_0" gradientUnits="userSpaceOnUse">
			<stop stop-color="#0CBAF1"/>
			<stop offset="1.000000" stop-color="#E95CE9"/>
		</linearGradient>
	</defs>
	<g clip-path="url(#clip9_179)">
		<mask id="mask9_174" mask-type="alpha" maskUnits="userSpaceOnUse" x="1.000000" y="13.000000" width="69.000000" height="44.848633">
			<path id="Vector" d="M1 13L70 13L70 57.84L1 57.84L1 13Z" fill="#000000" fill-opacity="1.000000" fill-rule="nonzero"/>
		</mask>
		<g mask="url(#mask9_174)">
			<path id="Vector" d="M20.86 36.08C17.47 36.08 14.7 38.49 14.7 41.44C14.7 44.4 17.46 46.81 20.86 46.81C24.26 46.81 27.01 44.4 27.01 41.44C27.01 38.48 24.25 36.08 20.86 36.08ZM20.86 36.97C23.49 36.97 25.68 38.62 26.06 40.77C25.87 43.09 23.61 44.92 20.86 44.92C18.11 44.92 15.84 43.09 15.65 40.77C16.04 38.62 18.22 36.97 20.86 36.97ZM20.86 45.92C18.44 45.92 16.4 44.52 15.78 42.63C16.71 44.25 18.64 45.36 20.86 45.36C23.08 45.36 25.01 44.25 25.93 42.63C25.32 44.52 23.28 45.92 20.86 45.92ZM49.54 36.08C46.14 36.08 43.38 38.49 43.38 41.44C43.38 44.4 46.14 46.81 49.54 46.81C52.93 46.81 55.69 44.4 55.69 41.44C55.69 38.48 52.93 36.08 49.54 36.08ZM49.54 36.97C52.17 36.97 54.36 38.62 54.74 40.77C54.55 43.09 52.29 44.92 49.54 44.92C46.79 44.92 44.52 43.09 44.33 40.77C44.72 38.62 46.9 36.97 49.54 36.97ZM49.54 45.92C47.12 45.92 45.07 44.52 44.46 42.63C45.39 44.25 47.32 45.36 49.54 45.36C51.76 45.36 53.68 44.25 54.61 42.63C54 44.52 51.96 45.92 49.54 45.92ZM69.98 16.53C69.98 16.51 69.98 16.49 69.98 16.47L69.98 16.29C69.99 16.19 69.96 16.11 69.91 16.03C69.34 13.14 66.84 13.32 66.82 13.33C66.75 13.33 66.7 13.35 66.65 13.39C66.59 13.42 66.56 13.47 66.53 13.53L65.78 15.1C65.37 14.77 64.92 14.52 64.43 14.34C63.95 14.16 63.44 14.06 62.92 14.05L7.65 14.05C7.23 14.06 6.82 14.15 6.43 14.3C6.03 14.45 5.68 14.66 5.35 14.93L4.54 13.23C4.51 13.18 4.47 13.13 4.42 13.09C4.37 13.06 4.31 13.04 4.25 13.03C4.22 13.03 1.6 12.83 1.12 15.96C1.03 16.05 0.99 16.16 1 16.29L1.88 41.46C1.89 41.5 1.89 41.55 1.91 41.59L6.64 55.31C6.68 55.41 6.74 55.49 6.82 55.54C7.01 55.98 7.28 56.36 7.64 56.68C8.28 57.25 9.16 57.53 10.25 57.53C10.51 57.53 10.78 57.51 11.04 57.48C11.08 57.48 11.13 57.46 11.17 57.44C11.21 57.42 11.24 57.4 11.27 57.36C11.3 57.33 11.32 57.29 11.34 57.25C11.35 57.2 11.36 57.16 11.36 57.12L11.2 53.47L25.82 53.47C25.91 53.47 25.99 53.45 26.06 53.41C26.13 53.36 26.18 53.3 26.22 53.23L30.04 45.59L40.5 45.59C40.52 45.59 40.55 45.59 40.58 45.59L44.4 53.23C44.44 53.31 44.49 53.37 44.57 53.41C44.64 53.45 44.71 53.48 44.8 53.48L59.88 53.48L59.71 57.42C59.71 57.46 59.72 57.5 59.73 57.55C59.75 57.59 59.77 57.63 59.8 57.66C59.83 57.7 59.86 57.72 59.9 57.75C59.94 57.77 59.98 57.78 60.03 57.78C60.29 57.81 60.55 57.83 60.82 57.83C61.91 57.83 62.79 57.55 63.43 56.98C63.74 56.71 63.98 56.39 64.16 56.02C64.35 55.66 64.46 55.27 64.5 54.86L69.06 41.6C69.07 41.56 69.08 41.52 69.08 41.47L69.96 16.67C69.98 16.63 69.99 16.58 69.98 16.53ZM7.67 14.93L62.93 14.93C63.38 14.94 63.82 15.03 64.24 15.2C64.66 15.37 65.04 15.61 65.38 15.92L64.75 17.24L6.47 17.24L5.75 15.76C6.01 15.51 6.3 15.31 6.63 15.17C6.96 15.03 7.31 14.95 7.67 14.94L7.67 14.93ZM61.12 24.88L60.99 27.93L60.2 27.93C60.2 25.37 60.05 22.82 59.74 20.28C59.74 20.23 59.72 20.19 59.68 20.15C59.65 20.12 59.61 20.1 59.56 20.09C47.28 17.96 38.36 20.07 38.27 20.09C38.19 20.11 38.14 20.16 38.11 20.25C37.94 20.97 37.82 21.71 37.75 22.45L33.39 22.45C33.27 21.1 33.16 20.28 33.16 20.27C33.15 20.22 33.13 20.18 33.1 20.15C33.07 20.11 33.03 20.09 32.98 20.08C20.7 17.95 11.77 20.06 11.69 20.08C11.61 20.1 11.55 20.16 11.53 20.24C11.5 20.34 10.86 22.71 10.97 27.92L10.09 27.92L9.95 24.58C9.94 24.54 9.93 24.49 9.91 24.45L6.8 17.96L64.41 17.96L61.16 24.75C61.14 24.79 61.13 24.84 61.12 24.88ZM48.06 22.65C48.02 22.59 47.96 22.54 47.9 22.51C47.83 22.47 47.76 22.45 47.69 22.45L38.19 22.45C38.26 21.79 38.36 21.14 38.5 20.5C39.64 20.25 48.02 18.57 59.31 20.5C59.6 22.96 59.75 25.44 59.75 27.93L46.95 27.93L46.95 25.8L48.09 23.07C48.15 22.92 48.14 22.79 48.06 22.65ZM22.52 23.07L23.66 25.8L23.66 27.93L11.42 27.93C11.32 23.45 11.8 21.05 11.92 20.5C13.06 20.25 21.44 18.57 32.74 20.5C32.78 20.79 32.86 21.48 32.94 22.45L22.93 22.45C22.9 22.45 22.86 22.46 22.83 22.47C22.79 22.48 22.76 22.49 22.73 22.51C22.69 22.53 22.67 22.55 22.64 22.57C22.61 22.6 22.59 22.63 22.57 22.66C22.55 22.69 22.53 22.72 22.52 22.75C22.51 22.79 22.5 22.82 22.5 22.86C22.49 22.89 22.49 22.93 22.5 22.97C22.5 23 22.51 23.04 22.52 23.07L22.52 23.07ZM3.99 13.73L4.85 15.54C4.84 15.61 4.84 15.69 4.86 15.76C4.89 15.84 4.93 15.9 4.99 15.96C5.02 15.98 5.05 16 5.08 16.02L5.91 17.75L9.24 24.7L9.38 27.93L6.92 27.93C6.86 27.93 6.81 27.95 6.75 27.97C6.7 27.99 6.65 28.03 6.61 28.07C6.57 28.11 6.54 28.16 6.51 28.21C6.49 28.27 6.48 28.33 6.48 28.39L6.48 34.01C6.48 34.11 6.52 34.2 6.58 34.28C6.64 34.36 6.72 34.41 6.82 34.43C7.8 34.71 8.73 35.1 9.62 35.6L10.06 45.67C9.19 46.05 8.27 46.23 7.32 46.22C7.2 46.21 7.09 46.25 6.99 46.34C6.98 46.35 6.97 46.37 6.96 46.38L6.09 25.33C6.09 25.28 6.08 25.23 6.06 25.19L1.89 16.39L1.89 16.26C1.89 16.19 1.87 16.12 1.83 16.06C2.15 14.05 3.49 13.77 3.99 13.74L3.99 13.73ZM10.93 45.16L10.54 36.17C12.49 37.57 13.35 39.3 13.08 41.33C12.82 43.3 11.94 44.47 10.93 45.17L10.93 45.16ZM1.95 18.19L5.39 25.43L6.47 52.09L2.77 41.36L1.95 18.19ZM10.63 56.8C9.54 56.87 8.69 56.65 8.12 56.15C7.85 55.91 7.64 55.62 7.5 55.29C7.53 55.2 7.53 55.11 7.5 55.03L7.3 54.43L7.26 53.46L10.51 53.46L10.63 56.8ZM30.49 44.7L30.82 44.04C30.83 44.02 30.84 43.99 30.85 43.96L30.86 43.92L39.75 43.92L39.78 43.98C39.78 44 39.79 44.02 39.8 44.04L40.13 44.7L30.49 44.7ZM31.28 43.03C31.47 42.72 31.7 42.43 31.96 42.18C32.22 41.93 32.51 41.71 32.83 41.54C33.16 41.36 33.49 41.23 33.85 41.14C34.21 41.06 34.57 41.02 34.93 41.03C36.5 40.99 37.79 41.47 38.75 42.45C38.93 42.63 39.09 42.83 39.24 43.03L31.28 43.03ZM40.61 43.66C40.47 43.28 39.11 40.04 34.93 40.14C31.88 40.14 30.59 42.31 30.16 43.27C30.15 43.29 30.14 43.31 30.13 43.34C30.07 43.49 30.02 43.61 30.01 43.68L25.55 52.58L7.74 52.58L7.74 47.09C8.75 47.03 9.72 46.79 10.63 46.35C10.69 46.34 10.75 46.31 10.8 46.27C12.22 45.53 13.61 44.12 13.97 41.46C14.4 38.27 12.34 36.22 10.36 35.02C10.32 34.98 10.27 34.95 10.21 34.93C9.31 34.4 8.37 33.98 7.38 33.67L7.38 28.82L24.13 28.82C24.19 28.82 24.25 28.81 24.3 28.79C24.36 28.76 24.41 28.73 24.45 28.69C24.5 28.64 24.53 28.59 24.55 28.54C24.57 28.48 24.59 28.42 24.59 28.36L24.59 25.71C24.59 25.65 24.57 25.59 24.55 25.54L23.63 23.34L47.02 23.34L46.09 25.54C46.07 25.59 46.06 25.65 46.06 25.71L46.06 28.38C46.06 28.44 46.07 28.49 46.09 28.55C46.12 28.61 46.15 28.66 46.19 28.7C46.24 28.74 46.28 28.77 46.34 28.8C46.4 28.82 46.46 28.83 46.52 28.83L61.01 28.83C61.03 28.89 61.08 28.94 61.13 28.97C61.19 29.01 61.25 29.03 61.31 29.03C61.38 29.04 61.45 29.02 61.51 28.98C61.57 28.95 61.62 28.9 61.65 28.83L63.25 28.83L63.25 33.67C62.4 33.94 61.58 34.29 60.8 34.71C60.73 34.73 60.67 34.76 60.62 34.81C58.54 35.98 56.2 38.08 56.65 41.46C57.04 44.35 58.64 45.76 60.18 46.45C60.24 46.49 60.3 46.51 60.37 46.53C61.17 46.85 62.01 47.04 62.87 47.09L62.87 52.58L45.07 52.58L40.61 43.66ZM57.54 41.34C57.26 39.23 58.21 37.43 60.35 36L60.45 35.94L60.04 45.4C58.91 44.73 57.83 43.53 57.54 41.34ZM62.96 56.44C62.38 56.94 61.53 57.16 60.44 57.09L60.6 53.45L63.33 53.45C63.39 53.45 63.45 53.44 63.5 53.41C63.56 53.39 63.6 53.36 63.65 53.32C63.69 53.28 63.72 53.23 63.74 53.18C63.77 53.12 63.78 53.07 63.78 53.01L63.78 46.63C63.78 46.57 63.77 46.51 63.74 46.46C63.72 46.4 63.69 46.35 63.64 46.31C63.6 46.27 63.55 46.24 63.49 46.22C63.43 46.19 63.37 46.18 63.31 46.19C62.49 46.21 61.69 46.08 60.92 45.79L61.37 35.38C62.15 34.98 62.96 34.67 63.81 34.43C63.9 34.41 63.98 34.35 64.05 34.27C64.11 34.2 64.14 34.11 64.14 34L64.14 28.38C64.14 28.32 64.13 28.26 64.11 28.2C64.09 28.15 64.05 28.1 64.01 28.06C63.97 28.01 63.92 27.98 63.87 27.96C63.81 27.93 63.76 27.92 63.7 27.92L61.7 27.92L61.83 24.98L67.08 14.02C67.56 14.04 68.77 14.28 69.18 16.01C69.13 16.08 69.1 16.16 69.09 16.25L69.07 16.9L65.01 25.48C64.99 25.52 64.98 25.57 64.97 25.62L63.82 54.08L63.49 55.01C63.46 55.1 63.46 55.18 63.48 55.27C63.51 55.35 63.55 55.42 63.61 55.49C63.47 55.86 63.26 56.17 62.96 56.44L62.96 56.44ZM64.61 51.74L65.67 25.71L69 18.7L68.2 41.35L64.61 51.74Z" fill="url(#paint_linear_9_173_0)" fill-opacity="1.000000" fill-rule="nonzero"/>
		</g>
	</g>
</svg>
