<svg width="70.000000" height="70.000000" viewBox="0 0 70 70" fill="none" xmlns="http://www.w3.org/2000/svg" xmlns:xlink="http://www.w3.org/1999/xlink">
	<desc>
			Created with Pixso.
	</desc>
	<defs>
		<clipPath id="clip9_191">
			<rect id="Title &amp; Desc" width="70.000000" height="70.000000" fill="white" fill-opacity="0"/>
		</clipPath>
		<linearGradient x1="5.000000" y1="35.000000" x2="65.000000" y2="35.000000" id="paint_linear_9_197_0" gradientUnits="userSpaceOnUse">
			<stop stop-color="#0CBAF1"/>
			<stop offset="1.000000" stop-color="#E95CE9"/>
		</linearGradient>
	</defs>
	<g clip-path="url(#clip9_191)">
		<g opacity="0.860000">
			<path id="Vector" d="M40.56 47.34C40.59 47.38 40.6 47.42 40.61 47.46C40.61 47.5 40.61 47.54 40.6 47.58C40.59 47.63 40.57 47.66 40.54 47.7C40.52 47.73 40.48 47.76 40.45 47.78C37.43 49.49 34.28 50.9 31 52.02C32.54 53.73 31.96 61.95 31.47 66.71C31.47 66.75 31.46 66.79 31.44 66.82C31.42 66.86 31.4 66.89 31.37 66.91C31.34 66.94 31.31 66.96 31.27 66.97C31.23 66.99 31.2 67 31.16 67L31.13 67C31.08 66.99 31.04 66.98 31.01 66.96C30.97 66.94 30.93 66.91 30.91 66.88C30.88 66.85 30.86 66.81 30.85 66.77C30.84 66.73 30.83 66.68 30.84 66.64C32.18 53.58 30.55 52.42 30.44 52.35C30.37 52.34 30.3 52.31 30.25 52.26C28.45 52.86 26.61 53.33 24.74 53.67C24.28 53.77 23.81 53.82 23.34 53.83C21.79 53.83 20.39 53.25 19.59 52.23C18.84 51.27 18.25 49.5 19.63 46.54C19.08 46.1 17.84 44.81 18.82 42.79C18.84 42.74 18.88 42.7 18.93 42.66C18.98 42.63 19.04 42.62 19.1 42.62L24.31 42.62C24.35 42.62 24.39 42.63 24.42 42.65C24.46 42.66 24.49 42.69 24.52 42.72C24.54 42.75 24.57 42.78 24.58 42.81C24.59 42.85 24.6 42.89 24.6 42.93C24.6 42.97 24.59 43.01 24.58 43.04C24.57 43.08 24.54 43.11 24.52 43.14C24.49 43.17 24.46 43.19 24.42 43.21C24.39 43.23 24.35 43.24 24.31 43.24L19.31 43.24C19.25 43.37 19.2 43.5 19.17 43.64C19.13 43.77 19.11 43.91 19.1 44.05C19.09 44.19 19.09 44.33 19.11 44.46C19.12 44.6 19.15 44.74 19.19 44.87C19.23 45.01 19.28 45.14 19.35 45.26C19.41 45.38 19.48 45.5 19.57 45.61C19.65 45.72 19.75 45.83 19.85 45.92C19.96 46.01 20.07 46.1 20.19 46.17C20.22 46.19 20.25 46.22 20.27 46.25C20.3 46.28 20.32 46.31 20.33 46.35C20.34 46.39 20.34 46.43 20.34 46.47C20.34 46.51 20.32 46.54 20.31 46.58C19.21 48.8 19.14 50.62 20.09 51.83C20.98 52.97 22.76 53.45 24.63 53.04C24.72 53.03 31.89 51.9 40.13 47.21C40.17 47.19 40.21 47.18 40.25 47.18C40.29 47.17 40.33 47.17 40.38 47.19C40.42 47.2 40.45 47.22 40.49 47.25C40.52 47.27 40.55 47.3 40.56 47.34ZM55.6 46.06C55.04 49.76 57.52 56.35 61.49 61.73C61.51 61.76 61.53 61.8 61.54 61.84C61.55 61.88 61.55 61.92 61.54 61.96C61.54 62 61.52 62.04 61.5 62.07C61.48 62.11 61.45 62.14 61.42 62.16C61.39 62.19 61.35 62.21 61.31 62.21C61.27 62.22 61.23 62.23 61.19 62.22C61.15 62.21 61.11 62.2 61.07 62.18C61.04 62.16 61.01 62.13 60.98 62.1C56.86 56.51 54.39 49.87 54.98 45.96C55.17 44.69 56.22 42.35 57.23 40.08C57.93 38.51 58.65 36.89 59.04 35.73C59.04 35.73 59.04 35.72 59.04 35.71C59.1 35.58 59.15 35.44 59.21 35.3L54.45 35.3C54.45 35.38 54.44 35.44 54.4 35.5C54.01 36.15 53.57 36.76 53.08 37.33C52.96 37.77 52.33 40.01 50.94 40.71C50.66 40.86 50.37 40.93 50.05 40.93C49.73 40.92 49.43 40.86 49.14 40.73C47.91 40.2 48.03 38.93 48.27 38.32C48.29 38.29 48.31 38.26 48.34 38.23C48.37 38.2 48.4 38.18 48.44 38.17C48.48 38.15 48.51 38.15 48.55 38.15C48.59 38.15 48.63 38.15 48.67 38.17C48.71 38.18 48.74 38.2 48.77 38.23C48.8 38.26 48.82 38.29 48.84 38.33C48.85 38.36 48.86 38.4 48.87 38.44C48.87 38.48 48.87 38.52 48.85 38.56C48.81 38.67 48.43 39.73 49.39 40.14C49.59 40.24 49.8 40.29 50.02 40.29C50.24 40.29 50.45 40.24 50.65 40.14C51.91 39.51 52.47 37.13 52.48 37.11C52.49 37.06 52.51 37.02 52.54 36.98C53 36.45 53.41 35.89 53.78 35.3L48.81 35.3C48.78 35.3 48.75 35.29 48.73 35.29C48.24 35.14 47.78 34.93 47.35 34.66C46.92 34.39 46.54 34.07 46.2 33.69C46.14 33.76 46.06 33.79 45.98 33.79L44.62 33.79C43.68 35.36 42.56 36.42 41.26 36.42L41.18 36.42C40.74 36.68 38.77 37.81 36.89 37.81C36.76 37.81 36.62 37.81 36.49 37.79C36.16 37.94 35.8 38.02 35.43 38.03C35.36 38.03 35.29 38.02 35.22 38.01L15.1 36.93C15.13 36.95 15.15 36.97 15.16 36.99C15.91 37.97 18.09 38.03 18.87 37.97C18.92 37.97 18.97 37.98 19.01 37.99C19.06 38.01 19.09 38.04 19.13 38.07C19.16 38.11 19.18 38.15 19.2 38.19C19.21 38.24 19.22 38.29 19.21 38.33C19.12 38.95 18.99 40.71 19.4 41.5C19.42 41.54 19.43 41.58 19.44 41.62C19.44 41.66 19.44 41.7 19.42 41.74C19.41 41.78 19.39 41.82 19.36 41.85C19.34 41.88 19.31 41.91 19.27 41.93C19.22 41.95 19.17 41.97 19.12 41.97C19.06 41.97 19.01 41.95 18.96 41.92C18.91 41.89 18.87 41.85 18.84 41.8C18.38 40.92 18.47 39.34 18.54 38.62C17.66 38.63 15.55 38.53 14.66 37.36C14.64 37.33 14.62 37.29 14.61 37.25C14.6 37.21 14.6 37.17 14.6 37.13C14.61 37.09 14.62 37.05 14.64 37.02C14.66 36.98 14.69 36.95 14.72 36.93C14.72 36.93 14.74 36.93 14.75 36.92L10.9 36.71C10.8 36.71 8.23 36.64 7.98 35.03C5.66 34.47 5.47 31.9 5.46 31.67C4.95 26.85 4.86 22.02 5.18 17.18C5.24 15.47 6.76 14.91 7.31 14.85L7.63 14.79C7.89 14.42 8.77 13.46 10.96 13.13C11.04 13.13 15.48 12.53 22.21 12.21C26.29 6.1 35.04 2.74 41.14 3.01C49.35 3.38 56.35 7.38 59.93 13.73L60.84 13.65C60.8 13.41 60.81 13.17 60.86 12.93C60.91 12.69 61 12.47 61.14 12.26C61.42 11.89 61.87 11.69 62.45 11.68L62.52 11.68C64.58 11.68 64.74 14.36 64.86 16.32C65.11 20.39 65.02 23.62 64.59 26.19C63.98 29.87 62.99 32.65 60.03 34.94C59.9 35.28 59.76 35.62 59.62 35.95C59.22 37.13 58.52 38.69 57.79 40.33C56.8 42.56 55.77 44.87 55.6 46.06ZM61.6 20.42L53.76 21.25C53.51 21.41 53.23 21.47 52.93 21.43L51.4 21.49C51.17 23.13 50.79 24.74 50.26 26.31C49.72 27.88 49.04 29.39 48.22 30.83C48.42 31.09 48.66 31.3 48.94 31.47C49.22 31.64 49.53 31.75 49.85 31.8C50.73 31.99 53.51 32.02 55.53 32.02C55.52 31.96 55.53 31.9 55.55 31.84C56.18 30.29 56.29 28.93 55.85 28.1C55.74 27.88 55.58 27.7 55.38 27.55C55.17 27.41 54.95 27.31 54.71 27.27C51.84 26.66 51.12 29.28 51.09 29.39C51.08 29.43 51.06 29.47 51.04 29.51C51.01 29.54 50.98 29.57 50.95 29.59C50.91 29.61 50.87 29.63 50.83 29.63C50.78 29.64 50.74 29.64 50.7 29.63C50.66 29.62 50.62 29.6 50.59 29.57C50.55 29.54 50.52 29.51 50.5 29.47C50.48 29.44 50.47 29.4 50.47 29.35C50.46 29.31 50.47 29.27 50.48 29.23C50.48 29.2 51.39 25.92 54.84 26.66C55 26.69 55.16 26.74 55.32 26.81C55.47 26.87 55.61 26.96 55.75 27.06C55.88 27.16 56.01 27.27 56.12 27.4C56.23 27.52 56.32 27.66 56.4 27.81C56.93 28.81 56.83 30.3 56.15 32.03C56.92 32.03 57.51 32.03 57.69 32.03C57.99 31.89 59.66 31.01 61.09 28.06C61.18 27.58 61.78 23.45 61.6 20.42ZM52.92 20.81L52.95 20.81C53.31 20.83 53.41 20.74 53.42 20.72L53.42 16.92C47.96 13.89 41.64 13.06 38.72 12.84C39.03 13.1 39.28 13.4 39.48 13.76C39.67 14.11 39.8 14.49 39.85 14.89C40.54 20.01 40.59 25.14 40.01 30.27C39.62 33.64 38.76 35.96 37.45 37.16C39.17 36.95 40.91 35.87 40.93 35.85L40.95 35.85C43.12 34.72 43.36 31.21 43.36 31.18L43.8 23.82C43.85 21.17 46.34 21.06 46.37 21.06L52.92 20.81ZM62.91 19.03L62.59 14.15L50.94 15.02C51.95 15.45 52.94 15.92 53.9 16.46C53.95 16.49 53.99 16.53 54.02 16.58C54.04 16.63 54.06 16.68 54.06 16.74L54.06 20.59L61.87 19.76C62.91 19.6 62.91 19.04 62.91 19.03ZM41.11 3.64C40.74 3.62 40.35 3.62 39.96 3.64C37.8 4.06 32.97 5.7 28.41 12.04C30.76 12.01 33.27 12.04 35.85 12.12C35.91 12.12 35.96 12.12 36.03 12.13C36.33 12.11 36.62 12.11 36.92 12.14C36.96 12.13 37 12.12 37.04 12.12C41.34 12.28 45.51 13.07 49.56 14.5L59.22 13.78C55.72 7.77 48.99 3.99 41.11 3.64ZM23 12.18C24.56 12.11 26.25 12.06 28.02 12.04C31.23 7.5 34.57 5.34 36.83 4.31C37.33 4.09 37.79 3.9 38.22 3.76C32.81 4.42 26.42 7.39 23 12.18ZM8.72 14.61C10.61 14.31 14.14 13.8 17.92 13.59C22.83 13.3 30.05 13.15 30.48 13.15C30.73 13.13 30.98 13.13 31.23 13.16C31.47 13.19 31.71 13.25 31.95 13.33C32.18 13.41 32.41 13.51 32.62 13.64C32.84 13.76 33.04 13.91 33.22 14.07C35.01 15.58 35.92 18.62 35.92 23.11C35.92 28.03 35.38 31.67 34.31 33.93C33.86 34.89 33.4 35.4 33.06 35.68L35.49 35.8C36.51 34.86 37.16 32.07 37.32 31.05C38.66 22.8 37.57 14.56 37.56 14.48C37.4 13.12 36.41 12.82 36.01 12.76C35.99 12.76 35.97 12.76 35.95 12.76L35.85 12.76C27.56 12.47 19.29 12.8 11.05 13.76C10.21 13.85 9.43 14.14 8.72 14.61ZM8.72 34.51L11.1 32.37C11.16 32.31 11.23 32.28 11.32 32.29L23.55 32.56C23.59 32.56 23.63 32.57 23.67 32.59C25.44 33.41 27.14 34.33 28.79 35.36L32.39 35.36C32.67 35.24 35.28 33.77 35.28 23.12C35.28 17.77 33.94 15.51 32.81 14.56C31.69 13.61 30.57 13.78 30.56 13.78L30.51 13.78C30.44 13.78 22.98 13.92 17.95 14.22C14.41 14.44 10.9 14.85 7.41 15.46L7.39 15.46C7.37 15.46 5.86 15.68 5.81 17.21C5.5 22.02 5.59 26.82 6.09 31.61C6.1 31.62 6.1 31.63 6.09 31.65C6.09 31.75 6.19 34.37 8.72 34.52L8.72 34.51ZM23.47 33.2L11.42 32.92L9.6 34.56L27.7 35.42C25.86 34.31 23.83 33.36 23.46 33.2L23.47 33.2ZM36.29 37.2C36.45 37.13 36.59 37.04 36.73 36.93C37.66 36.24 38.87 34.51 39.37 30.2C39.94 25.12 39.89 20.05 39.21 14.99C39 13.7 38.23 13.14 37.52 12.9C37.71 13.11 37.85 13.34 37.97 13.6C38.08 13.85 38.15 14.12 38.18 14.4C38.18 14.48 39.29 22.81 37.94 31.15C37.91 31.31 37.26 35.18 35.79 36.37C35.73 36.41 35.67 36.43 35.59 36.43L35.58 36.43L8.81 35.15L8.66 35.15C9.05 36.02 10.89 36.09 10.91 36.09L35.25 37.4L35.29 37.4C35.64 37.43 35.97 37.37 36.28 37.2L36.29 37.2ZM47.76 21.63L46.39 21.67C46.31 21.67 44.46 21.77 44.43 23.83L43.98 31.21C43.98 31.34 43.8 33.79 42.44 35.42C45.24 33.51 47.16 25.3 47.76 21.62L47.76 21.63ZM45.82 33.18C49.61 28.62 50.57 22.97 50.76 21.52L48.4 21.61C48.26 22.46 47.14 29.08 44.97 33.18L45.82 33.18ZM48.85 34.68L59.35 34.68C62.39 32.46 63.38 29.75 63.98 26.1C64.4 23.57 64.48 20.38 64.24 16.36C64.11 14.15 63.89 12.31 62.52 12.31L62.48 12.31C62.32 12.3 62.17 12.32 62.02 12.38C61.87 12.44 61.75 12.53 61.64 12.65C61.55 12.79 61.5 12.95 61.47 13.11C61.44 13.28 61.44 13.44 61.47 13.6L62.85 13.5C62.94 13.49 63.01 13.52 63.08 13.58C63.14 13.63 63.18 13.71 63.19 13.8L63.54 19C63.54 19.05 63.58 20.01 62.23 20.33C62.43 23.62 61.75 28.01 61.72 28.21C61.71 28.24 61.7 28.27 61.69 28.29C60.01 31.79 57.97 32.61 57.88 32.64C57.84 32.65 57.81 32.66 57.77 32.66C57.68 32.66 56.83 32.67 55.72 32.67C53.66 32.67 50.68 32.63 49.72 32.43C49.36 32.36 49.03 32.25 48.71 32.07C48.39 31.9 48.11 31.68 47.87 31.41C47.48 32.04 47.06 32.64 46.6 33.22C46.9 33.56 47.24 33.86 47.62 34.1C48.01 34.35 48.42 34.54 48.85 34.68L48.85 34.68Z" fill="url(#paint_linear_9_197_0)" fill-opacity="1.000000" fill-rule="nonzero"/>
		</g>
	</g>
</svg>
